<svg width="180px" height="60px" viewBox="0 0 180 60" version="1.1" xmlns="http://www.w3.org/2000/svg" xmlns:xlink="http://www.w3.org/1999/xlink">
    <!-- Generator: Sketch 51.3 (57544) - http://www.bohemiancoding.com/sketch -->
    <desc>Created with Sketch.</desc>
    <defs></defs>
    <g id="Page-1" stroke="none" stroke-width="1" fill="none" fill-rule="evenodd">
        <rect id="Rectangle" fill="#FFFFFF" x="0" y="0" width="180" height="60"></rect>
        <g id="Group" transform="translate(18.000000, 7.000000)">
            <path d="M42.0536418,46.9773564 L42.0536418,23.5864052 L44.0531665,23.5864052 L44.0531665,11.8032787 L38.1814996,11.8032787 C36.4790374,12.4293213 34.8039885,12.9292804 33.2933627,13.3798998 C32.9932354,13.4694039 32.6982161,13.5573889 32.4092697,13.6445232 C32.4080211,13.6448878 32.4067724,13.6452524 32.4055238,13.6456777 C32.4261831,13.9873488 32.4439478,14.3139507 32.459272,14.62761 L41.4151334,14.62761 L41.4151334,20.7620739 L32.3134083,20.7620739 C32.1859337,21.4641919 32.0344511,21.7587108 31.9487491,21.9250195 C31.6224003,22.5585967 31.1661363,23.1147617 30.681778,23.5864052 L39.4156087,23.5864052 L39.4156087,25.3093439 L29.5264467,26.0131025 L39.4156087,26.9741322 L39.4156087,28.816592 L29.7869581,29.5108716 L39.4156087,30.4588373 L39.4156087,32.8001624 L29.7869581,33.4943813 L39.4156087,34.4424077 L39.4156087,36.7837328 L29.7869581,37.4779517 L39.4156087,38.4259781 L39.4156087,40.767364 L29.7869581,41.461279 L39.4156087,42.4097915 L39.4156087,44.4648008 L9.9640236,44.4648008 L9.9640236,23.5864052 L18.200442,23.5864052 C17.6272033,22.6913034 16.9708734,21.6385213 16.4743692,20.7620739 L8.05320904,20.7620739 L8.05320904,14.62761 L15.8837631,14.62761 C15.93666,14.2661301 15.9959135,13.9056224 16.0594806,13.551191 C15.3801076,13.4894557 14.6526053,13.3616708 13.8585846,13.1652844 C12.6523428,12.8597066 11.2491566,12.3872124 9.77945209,11.8032787 L5.41517593,11.8032787 L5.41517593,23.5864052 L7.32599049,23.5864052 L7.32599049,46.9402909 C2.80903986,47.0527027 0,47.2094716 0,47.3838618 C0,47.7241354 10.7451606,48 24.0000284,48 C37.2548961,48 48,47.7241354 48,47.3838618 C48,47.2283082 45.7558557,47.0861224 42.0536418,46.9773564" id="Fill-3" fill="#22224B"></path>
            <path d="M18,25.9672131 L11.25,25.9672131 L11.25,37.7704918 C11.25,37.7704918 12.0195734,27.0717226 13.2586174,26.8672764 C14.4976072,26.6628884 18,25.9672131 18,25.9672131" id="Fill-4" fill="#22224B"></path>
            <path d="M9.87529228,7.08196721 C9.43633225,7.13771282 9.50346028,7.29596208 9.42128219,7.66792179 C9.31228871,8.05165633 9.19111185,8.37680111 9,8.69716769 C9.85325469,7.61866087 11.3464355,7.57076516 12.8209829,7.92634248 C14.3161345,8.27805175 15.9180698,9.0316982 17.25,9.44262295 C16.1789375,8.64477819 14.9699162,8.11496741 13.7093543,7.75489631 C12.4492703,7.39488209 11.1372874,7.20403871 9.87529228,7.08196721" id="Fill-5" fill="#C72254"></path>
            <path d="M37.245952,7.08196721 C34.7795226,7.46299923 32.0635973,7.87482011 30,9.44262295 C32.6221911,8.64549235 36.3302671,6.54213225 38.25,8.58227748 C38.156439,8.28220486 37.7731277,7.98324128 37.7435001,7.62064033 C37.6357317,7.27467488 37.6961421,7.1247442 37.245952,7.08196721" id="Fill-6" fill="#C72254"></path>
            <path d="M39.6962948,7.08414184 C37.3142588,4.96349167 34.32918,6.10151442 31.5999958,6.86803114 C33.2061499,6.07963283 35.0039705,5.47410206 36.8227105,5.53217241 C38.6000076,5.58513306 40.3985067,6.30169485 41.052662,8.03935746 C41.0537913,8.03977797 40.3894605,7.58134675 39.6962948,7.08414184 Z M32.4940438,10.7780419 C31.0244874,10.9093915 29.6569835,10.7600076 28.2457752,10.6885318 C30.4725557,7.75832308 34.2573757,6.31780546 37.4291456,6.76721955 C38.4303912,6.93872549 37.9294574,8.41699485 38.628277,8.87224002 C38.5988768,8.97227012 35.1739827,10.5646363 32.4940438,10.7780419 Z M30.0067325,19.7481691 C29.850007,19.4527076 29.8049456,19.2536092 29.8049456,19.2536092 L30.3182048,13.7781033 C30.3182048,13.7781033 30.1635146,20.0436306 30.0067325,19.7481691 Z M23.5960812,8.75832352 C23.2276744,8.60773734 22.2042091,10.830221 22.2042091,10.830221 C22.2042091,10.830221 22.3270114,9.77942406 22.5726724,9.44891595 C22.818277,9.11846796 23.514213,7.94966672 23.514213,7.94966672 C23.514213,7.94966672 23.9645445,8.2560089 24.2510831,8.75832352 C24.5376217,9.26063814 24.9879532,10.0405603 24.9879532,10.0405603 C24.9879532,10.0405603 23.9645445,8.9089097 23.5960812,8.75832352 Z M14.2930746,10.5488263 C11.7052939,10.4093011 8.35864954,8.90386011 8.32082509,8.80455138 C9.0105984,8.23737349 8.46386824,6.5910247 9.73638692,6.59126516 C11.2832884,6.54708119 12.9319597,6.8092394 14.4614472,7.43292468 C15.9913304,8.05528745 17.4140727,9.03581087 18.4880271,10.3934309 C17.0347539,10.3772001 15.7719034,10.7126977 14.2930746,10.5488263 Z M6.01437926,8.03015984 C6.49185158,6.29802788 8.19429126,5.5688421 9.88881551,5.47151714 C11.6254612,5.3700443 13.3541348,5.90037216 14.8585757,6.5914455 C12.3202099,6.01561116 9.42112659,4.88492235 7.2096116,7.05216106 C6.58983332,7.55970562 6.01308106,8.03046026 6.01437926,8.03015984 Z M15.4741701,5.29538241 C14.0055183,4.40623263 12.6371664,3.53235187 11.492595,2.71083062 C12.7949662,2.52640012 13.986804,2.58927962 15.0461148,2.99523111 C16.1055953,3.40040111 17.0469663,4.14810207 17.8551318,5.3096896 C19.0888084,6.62294536 20.1221679,7.95056843 20.1158645,7.94966718 C18.5338235,7.08041476 16.9464403,6.18339002 15.4741701,5.29538241 Z M27.7681354,5.51810568 C28.9837761,4.14503624 30.2985858,2.7879572 31.628039,2.74695928 C32.5315855,2.68401967 33.4529983,2.71227336 34.3451239,2.6558862 C31.9914139,4.33806308 28.8625569,6.39703604 25.6683411,8.18687752 C26.38808,7.34137069 27.0219364,6.31047153 27.7681354,5.51810568 Z M32.0416203,1.02733123 C34.0047604,1.28035208 30.3759309,0.900850863 28.9481567,1.97611434 C28.9481567,1.97611434 30.0784803,0.774370495 32.0416203,1.02733123 Z M41.0526605,5.5283251 C39.2281536,4.51594113 36.9260634,4.53289334 35.8059168,4.90770565 C32.4950049,6.001845 28.4353498,6.98723768 25.7048086,9.88582628 C25.6036042,9.56956524 25.4904135,9.25342443 25.3641624,8.95038853 C28.1686563,5.94341395 32.5848451,5.15231051 35.7267625,3.67115566 C36.4372855,3.33343384 37.1952446,2.34335225 36.8769878,2.07818832 C34.2989883,-0.434887629 31.1163629,-0.307746003 29.2588373,0.580622288 C27.100695,1.53818207 25.6030388,4.34359359 24.2549278,7.19974153 C23.9678238,6.94365485 23.6503584,6.79132536 23.2985175,6.79126525 C23.0160497,6.82883665 22.5137025,7.29394055 22.0404162,7.94599975 C21.1356824,6.32207358 20.2150612,4.56769949 19.2788918,3.14485546 C18.2843744,1.66418153 17.3457173,0.542389629 15.877744,0.303976539 C13.9678635,0.0218002797 11.4354908,-0.0519598971 9.12203636,2.0696521 C8.73542408,2.41627083 9.33942803,3.47193706 10.1347593,3.80040129 C11.0097537,4.16180812 11.9913237,4.48876949 13.0010501,4.83214205 C14.0119637,5.17557472 15.0526168,5.53553881 16.0692409,5.96535565 C17.5320126,6.6083376 18.972395,7.37497455 20.1997392,8.42535073 C18.9898089,7.72544059 17.5268111,7.12988878 16.5424706,6.68149664 C15.509111,6.244947 14.4488955,5.89460119 13.4008924,5.5874174 C12.3536243,5.28005328 11.3174943,5.01567083 10.3437832,4.75104793 C8.03716995,4.20677357 6.04587356,6.47446318 4.91549342,7.84206222 C4.31131984,7.77305107 3.49670887,8.06262138 3.82559505,8.25432571 C6.80123187,9.92526122 10.7839377,11.6831219 13.8718606,12.4599182 C14.9186764,12.7170268 15.8944795,12.8619021 16.8115953,12.854448 C16.9241075,12.858175 17.043574,12.860279 17.1659239,12.8615414 C16.8515682,14.3140819 16.0631912,18.4091844 16.8167969,19.8620254 C17.0876177,20.3841778 17.9458766,18.5549615 18.3703699,19.2438707 C19.3919694,20.9018816 20.1158356,25.1589319 20.1158356,25.1589319 C20.1158356,25.1589319 19.9825171,19.1936152 20.1158356,17.7084928 C20.2491541,16.2233704 20.3627971,13.3841747 20.1158356,12.5801467 C20.1157791,12.5799062 20.1156094,12.5797259 20.1155529,12.5794854 C20.2552603,12.5467232 20.3917449,12.5102338 20.5249503,12.4705584 C20.5825634,12.4348505 20.7459039,12.4001045 20.7459039,12.4001045 C20.7459039,12.4001045 20.8745297,12.354598 21.0741116,12.2751871 C21.1827792,12.2290795 21.2874325,12.1798459 21.3863189,12.1266448 C21.3914639,12.1311534 21.3964393,12.1354215 21.4015278,12.13987 C23.0486725,11.8095422 23.7242546,10.0497578 23.7242546,10.0497578 C23.7242546,10.0497578 23.453773,11.1778617 22.7109098,11.9172669 C22.4116499,12.215133 21.8953377,12.4299212 21.488541,12.5105945 L21.488541,48 L25.8098577,48 L25.8098577,12.3244808 C24.5226955,11.8088208 24.6080691,10.6961062 24.6362254,11.0553489 C24.6542047,11.2846246 25.2532333,11.6920188 25.8098577,12.0230079 L25.8098577,11.9926502 C26.4841394,12.4339488 27.1494314,12.7773214 27.8345685,12.999684 C27.7953871,14.2007666 26.7814204,27.969393 27.5560019,28.0144186 C28.3305834,28.059384 28.0599887,24.170774 28.9481567,21.6926845 C29.4917206,20.1761825 30.3293429,22.3772054 30.6796007,21.701882 C31.3447231,20.4195851 31.115006,15.7027209 30.9348734,13.1689657 C31.2153058,13.1142617 31.5032014,13.0413431 31.7998604,12.9492481 C35.3560376,11.8848052 40.5008419,8.5902441 43.4872211,9.73782501 C43.6364835,9.6516813 42.4570842,6.30776639 41.0526605,5.5283251 Z" id="Fill-7" fill="#C72254"></path>
            <path d="M39.7235606,16.831176 C39.6329151,16.4280309 39.548984,16.0335683 39.2971907,15.7377049 C39.6329151,20.1757872 34.7668698,18.4005411 32.25,19.0909329 L32.25,19.4853954 C34.7668698,19.6826596 37.1998645,19.7812588 39.7168462,19.4853954 C39.7168462,19.4853954 39.7168462,18.9922679 39.7050958,18.6918659 C39.7050958,18.6918659 39.7923841,17.5401167 39.7235606,16.831176" id="Fill-8" fill="#22224B"></path>
        </g>
        <text id="ПРОСТО" transform="translate(17.000000, 32.500000) rotate(270.000000) translate(-17.000000, -32.500000) " font-family="AmericanTypewriter-Bold, American Typewriter" font-size="11" font-weight="bold" fill="#C72254">
            <tspan x="-6.5" y="29.5">ПРОСТО</tspan>
        </text>
        <text id="ПОКУПАТЬ" font-family="AmericanTypewriter-Bold, American Typewriter" font-size="14" font-weight="bold" fill="#C72254">
            <tspan x="72" y="37">ПОКУПАТЬ</tspan>
        </text>
        <text id="ДАРИТЬ" font-family="AmericanTypewriter-Bold, American Typewriter" font-size="14" font-weight="bold" fill="#C72254">
            <tspan x="71" y="52">ДАРИТЬ</tspan>
        </text>
        <text id="ВЫБИРАТЬ" font-family="AmericanTypewriter-Bold, American Typewriter" font-size="14" font-weight="bold" fill="#C72254">
            <tspan x="72" y="22">ВЫБИРАТЬ</tspan>
        </text>
    </g>
</svg>
